<svg id="Calque_1" data-name="Calque 1" xmlns="http://www.w3.org/2000/svg" viewBox="0 0 266.99 259.06"><defs><style>.cls-1{fill:#727270;}</style></defs><path class="cls-1" d="M177.87,141.08a28.47,28.47,0,1,0,28.47,28.48A28.48,28.48,0,0,0,177.87,141.08Zm0,40.85a12.38,12.38,0,1,1,12.38-12.37A12.37,12.37,0,0,1,177.87,181.93Z"/><path class="cls-1" d="M88,141.08a28.47,28.47,0,1,0,28.48,28.48A28.48,28.48,0,0,0,88,141.08Zm0,40.85a12.38,12.38,0,1,1,12.38-12.37A12.37,12.37,0,0,1,88,181.93Z"/><path class="cls-1" d="M210.38,107.24c-8.85-2.3-13.92-3.75-17.4-10.46L181.36,73.25C177.88,66.53,168.86,61,161.29,61H138.93s-3.25,0-7.21,0H118.16A7.23,7.23,0,0,0,111,68.3v34.33a8.8,8.8,0,0,1-7.87,4.92H36.71c-4,0-6.7,3.17-6.7,7.14V163.8A7.25,7.25,0,0,0,36.36,171v0H56.63c0-.48,0-1,0-1.45a31.36,31.36,0,1,1,62.71,0c0,.48,0,1,0,1.45h24.51a13.27,13.27,0,0,0,2.29-.2c0-.42,0-.83,0-1.25a31.59,31.59,0,0,1,63.18,0c0,.48,0,1,0,1.45h14A13.78,13.78,0,0,0,237,157.27V131.15C237,109.15,217.73,109.15,210.38,107.24ZM138.93,106V70.6h17.48c6.73,0,14.76,4.89,17.85,10.86l10.35,20.94a15.18,15.18,0,0,0,2.55,3.62Z"/></svg>