<?xml version="1.0" encoding="utf-8"?>
<!-- Generator: Adobe Illustrator 16.0.0, SVG Export Plug-In . SVG Version: 6.00 Build 0)  -->
<!DOCTYPE svg PUBLIC "-//W3C//DTD SVG 1.1//EN" "http://www.w3.org/Graphics/SVG/1.1/DTD/svg11.dtd">
<svg version="1.1" id="Calque_1" xmlns="http://www.w3.org/2000/svg" xmlns:xlink="http://www.w3.org/1999/xlink" x="0px" y="0px"
	 width="41.75px" height="28px" viewBox="458.333 266.625 41.75 28" enable-background="new 458.333 266.625 41.75 28"
	 xml:space="preserve">
<g>
	<path d="M489.918,286.813c-1.842,0-3.338,1.525-3.338,3.406c0,1.88,1.496,3.406,3.338,3.406c1.843,0,3.337-1.526,3.337-3.406
		C493.255,288.338,491.761,286.813,489.918,286.813L489.918,286.813z M490.592,290.977c-0.406,0.379-1.036,0.351-1.409-0.063
		c-0.168-0.188-0.261-0.434-0.261-0.687c0-0.062,0.006-0.123,0.016-0.184c0.1-0.552,0.618-0.919,1.158-0.818
		c0.409,0.075,0.729,0.402,0.802,0.818c0.013,0.061,0.018,0.122,0.018,0.184c0,0.283-0.117,0.555-0.323,0.744V290.977z"/>
	<path d="M467.246,286.813h-0.016c-1.843,0.009-3.333,1.538-3.325,3.419c0.005,1.88,1.504,3.399,3.348,3.394
		c1.837-0.006,3.325-1.529,3.325-3.406c-0.001-0.193-0.017-0.389-0.048-0.58C470.253,288.009,468.869,286.817,467.246,286.813z
		 M467.913,290.977c-0.407,0.379-1.038,0.351-1.41-0.063c-0.167-0.188-0.261-0.434-0.261-0.687c0-0.062,0.005-0.123,0.017-0.184
		c0.025-0.143,0.081-0.276,0.162-0.396c0.315-0.461,0.935-0.574,1.387-0.253c0.215,0.153,0.363,0.387,0.411,0.649
		c0.011,0.061,0.017,0.122,0.017,0.184c-0.001,0.283-0.119,0.553-0.322,0.744V290.977z"/>
	<path d="M466.039,286.813h-2.817v2.83h0.515c0-0.013,0-0.023,0-0.036C463.953,288.318,464.833,287.252,466.039,286.813z"/>
	<g>
		<path d="M496.836,287.872c-0.014-1.556,0.028-3.098-0.029-4.652c-0.485-0.228-0.976-0.455-1.466-0.688
			c-0.343-0.161-0.685-0.326-1.023-0.496c-0.041-0.018-0.083-0.04-0.124-0.063c-0.691-0.379-0.67-1.334-0.935-2.008
			c-0.273-1.143-0.727-2.256-0.999-3.398c-0.189-0.725-0.264-1.477-0.218-2.224c-1.994-0.029-3.972-0.015-5.952,0h-0.021
			l-0.008-0.011v2.51l0.008,0.008c-0.006,3.32-0.031,6.644,0,9.963h-17.632c1.204,0.441,2.082,1.508,2.296,2.794
			c0,0.013,0,0.023,0,0.036h15.375c0.495-1.586,1.705-3.113,3.454-3.213c1.931-0.284,3.719,1.229,4.14,3.113
			c1.272,0.012,2.545,0.012,3.818,0.012c0-0.54,0.015-1.097,0.015-1.639L496.836,287.872z M488.696,281.764
			c-0.014-1.514-0.042-3.027,0.014-4.541c0.989,0,2.001-0.014,2.993,0.029c0.391,1.498,0.866,2.983,1.259,4.496
			C491.538,281.777,490.124,281.764,488.696,281.764z M496.675,287.989c-0.865,0.03-1.743,0.03-2.606,0.017
			c-0.016-0.532-0.016-1.051,0-1.582c0.863-0.016,1.729-0.016,2.596,0C496.69,286.951,496.69,287.469,496.675,287.989z"/>
	</g>
	<path d="M463.891,273.358h-0.898v13.062h22.674v-0.469v-9.584v-1.173v-1.836H463.891z M475.003,281.963
		c-0.073,0.124-0.195,0.198-0.315,0.198c-0.072,0-0.146-0.024-0.194-0.051l-1.065-0.618v1.063c0,0.123-0.097,0.224-0.218,0.224
		c-0.121,0-0.217-0.101-0.217-0.224v-1.335l-2.252-1.31v2.645l1.139,0.668c0.097,0.05,0.145,0.197,0.072,0.297
		c-0.048,0.074-0.121,0.121-0.194,0.121c-0.048,0-0.097,0-0.121-0.023l-0.92-0.544v1.26c0,0.199-0.169,0.371-0.363,0.371
		s-0.363-0.172-0.363-0.371v-1.26l-0.92,0.544c-0.049,0.023-0.073,0.023-0.122,0.023c-0.072,0-0.145-0.047-0.193-0.121
		c-0.073-0.1-0.024-0.223,0.073-0.297l1.138-0.643v-2.645l-2.252,1.309v1.336c0,0.124-0.098,0.222-0.219,0.222
		c-0.12,0-0.217-0.098-0.217-0.222v-1.089l-1.065,0.618c-0.073,0.026-0.122,0.051-0.194,0.051c-0.121,0-0.243-0.074-0.314-0.198
		c-0.098-0.197-0.025-0.42,0.145-0.52l1.065-0.617l-0.92-0.544c-0.097-0.05-0.146-0.198-0.073-0.298
		c0.049-0.098,0.195-0.146,0.292-0.073l1.138,0.668l2.252-1.31l-2.228-1.311l-1.139,0.667c-0.048,0.024-0.073,0.024-0.121,0.024
		c-0.073,0-0.146-0.049-0.195-0.123c-0.072-0.099-0.024-0.248,0.073-0.296l0.92-0.544l-1.065-0.619
		c-0.193-0.099-0.243-0.346-0.145-0.518c0.121-0.174,0.339-0.248,0.509-0.149l1.065,0.644v-1.088c0-0.124,0.097-0.223,0.217-0.223
		c0.121,0,0.219,0.099,0.219,0.223v1.334l2.252,1.311v-2.645l-1.138-0.667c-0.097-0.05-0.146-0.198-0.073-0.298
		c0.049-0.098,0.193-0.146,0.291-0.073l0.92,0.544v-1.261c0-0.197,0.17-0.371,0.363-0.371s0.363,0.174,0.363,0.371v1.285l0.92-0.544
		c0.098-0.074,0.218-0.024,0.291,0.074c0.073,0.1,0.024,0.223-0.073,0.297l-1.138,0.668v2.619l2.252-1.311v-1.334
		c0-0.124,0.097-0.223,0.219-0.223c0.121,0,0.217,0.099,0.217,0.223v1.088l1.065-0.644c0.194-0.099,0.412-0.024,0.509,0.149
		c0.097,0.172,0.024,0.419-0.121,0.518l-1.066,0.619l0.92,0.544c0.097,0.048,0.146,0.197,0.073,0.296
		c-0.049,0.074-0.122,0.123-0.194,0.123c-0.048,0-0.098,0-0.122-0.024l-1.137-0.667l-2.252,1.311l2.3,1.31l1.138-0.668
		c0.098-0.073,0.218-0.024,0.291,0.073c0.073,0.1,0.023,0.225-0.073,0.298l-0.92,0.544l1.066,0.617
		C475.051,281.543,475.1,281.789,475.003,281.963z M483.491,283.662c-0.06,0.102-0.159,0.164-0.259,0.164
		c-0.06,0-0.12-0.021-0.162-0.04l-0.881-0.513v0.88c0,0.103-0.08,0.185-0.18,0.185s-0.18-0.082-0.18-0.185v-1.104l-1.863-1.085
		v2.188l0.941,0.552c0.081,0.042,0.121,0.164,0.061,0.245c-0.04,0.063-0.102,0.102-0.161,0.102c-0.04,0-0.08,0-0.101-0.02
		l-0.76-0.449v1.041c0,0.164-0.14,0.308-0.301,0.308c-0.16,0-0.3-0.144-0.3-0.308v-1.041l-0.762,0.449
		c-0.04,0.02-0.06,0.02-0.1,0.02c-0.06,0-0.12-0.039-0.161-0.102c-0.06-0.081-0.02-0.184,0.061-0.245l0.941-0.532v-2.186
		l-1.864,1.082v1.104c0,0.104-0.08,0.186-0.18,0.186c-0.1,0-0.18-0.082-0.18-0.186v-0.899l-0.881,0.513
		c-0.061,0.02-0.101,0.04-0.16,0.04c-0.101,0-0.201-0.063-0.26-0.164c-0.081-0.163-0.021-0.347,0.12-0.429l0.881-0.511l-0.761-0.45
		c-0.08-0.04-0.12-0.164-0.061-0.245c0.04-0.082,0.161-0.122,0.241-0.063l0.941,0.553l1.862-1.082l-1.842-1.084l-0.941,0.551
		c-0.04,0.02-0.061,0.02-0.101,0.02c-0.06,0-0.121-0.039-0.161-0.102c-0.06-0.082-0.02-0.203,0.061-0.245l0.761-0.45l-0.881-0.51
		c-0.161-0.082-0.201-0.286-0.12-0.43c0.099-0.144,0.28-0.205,0.42-0.123l0.881,0.531v-0.898c0-0.104,0.08-0.186,0.18-0.186
		c0.101,0,0.18,0.082,0.18,0.186v1.104l1.864,1.084v-2.188l-0.941-0.553c-0.081-0.041-0.121-0.164-0.061-0.246
		c0.041-0.081,0.161-0.122,0.24-0.061l0.762,0.45v-1.043c0-0.163,0.14-0.306,0.3-0.306c0.16,0,0.3,0.143,0.3,0.306v1.063
		l0.762-0.449c0.08-0.062,0.18-0.021,0.241,0.062c0.061,0.082,0.021,0.184-0.062,0.245l-0.941,0.552v2.168l1.865-1.084v-1.104
		c0-0.104,0.079-0.186,0.179-0.186s0.18,0.082,0.18,0.186v0.898l0.881-0.531c0.162-0.082,0.342-0.021,0.421,0.123
		c0.08,0.144,0.021,0.348-0.1,0.43l-0.881,0.51l0.762,0.45c0.079,0.042,0.119,0.163,0.06,0.245c-0.04,0.063-0.1,0.102-0.159,0.102
		c-0.042,0-0.082,0-0.103-0.02l-0.941-0.551l-1.862,1.084l1.902,1.082l0.941-0.553c0.082-0.06,0.182-0.02,0.241,0.063
		c0.061,0.081,0.021,0.183-0.06,0.245l-0.762,0.45l0.882,0.511C483.531,283.315,483.573,283.519,483.491,283.662z"/>
</g>
</svg>
